# xmcd
#
# Track frame offsets: 
#        150
#        14057
#        26107
#        38550
#        51370
#        60502
#        73100
#        84075
#        101007
#        111415
#        130340
#        142347
#        154082
#        172495
#        187402
#        204605
#
# Disc length: 2945 seconds
#
# Revision: 0
# Processed by: cddbd v1.4PL0 Copyright (c) Steve Scherf et al.
# Submitted via: ExactAudioCopy v0.90b4
#
DISCID=fa0b7f10
DTITLE=Johnny Cash - Biggest Hits
DYEAR=1983
DGENRE=Country
TTITLE0=Don't Take Your Guns To Town
TTITLE1=Ring Of Fire
TTITLE2=Understand Your Man
TTITLE3=The One On The Right Is On The Left
TTITLE4=Rosanna's Going Wild
TTITLE5=Folsom Prison Blues
TTITLE6=Daddy Sang Bass
TTITLE7=A Boy Named Sue
TTITLE8=Kate
TTITLE9=Sunday Morning Coming Down
TTITLE10=Flesh and Blood
TTITLE11=A Thing Called Love
TTITLE12=One Piece At A Time
TTITLE13=There Ain't No Good Chain Gang
TTITLE14=Riders In The Sky
TTITLE15=The Baron
EXTD=
EXTT0=
EXTT1=
EXTT2=
EXTT3=
EXTT4=
EXTT5=
EXTT6=
EXTT7=
EXTT8=
EXTT9=
EXTT10=
EXTT11=
EXTT12=
EXTT13=
EXTT14=
EXTT15=
PLAYORDER=
